<?xml version="1.0" encoding="utf-8"?>
<!-- Generator: Adobe Illustrator 16.0.0, SVG Export Plug-In . SVG Version: 6.00 Build 0)  -->
<!DOCTYPE svg PUBLIC "-//W3C//DTD SVG 1.1//EN" "http://www.w3.org/Graphics/SVG/1.1/DTD/svg11.dtd">
<svg version="1.1" id="Layer_1" xmlns="http://www.w3.org/2000/svg" xmlns:xlink="http://www.w3.org/1999/xlink" x="0px" y="0px"
	 width="184.251px" height="30.08px" viewBox="0.097 0 184.251 30.08" enable-background="new 0.097 0 184.251 30.08"
	 xml:space="preserve">
<g id="Background">
</g>
<g id="UID_background">
	<g>
		<g>
			<path fill="#FFFFFF" d="M15.179,0c4.22,0,7.271,1.336,10.11,3.885c0.376,0.334,0.376,0.836,0.042,1.17l-2.549,2.632
				c-0.292,0.335-0.711,0.335-1.045,0c-1.755-1.546-4.095-2.465-6.434-2.465c-5.348,0-9.317,4.47-9.317,9.734
				c0,5.222,4.012,9.651,9.358,9.651c2.507,0,4.638-0.961,6.393-2.382c0.334-0.292,0.795-0.251,1.045,0l2.591,2.674
				c0.334,0.292,0.251,0.835-0.042,1.128c-2.841,2.758-6.435,4.053-10.152,4.053c-8.354,0-15.082-6.643-15.082-14.998
				C0.097,6.726,6.823,0,15.179,0z"/>
			<path fill="#FFFFFF" d="M34.983,1.211c0-0.418,0.376-0.794,0.794-0.794h3.887c0.417,0,0.793,0.376,0.793,0.794v27.657
				c0,0.418-0.376,0.794-0.793,0.794h-3.887c-0.418,0-0.794-0.376-0.794-0.794V1.211z"/>
			<path fill="#FFFFFF" d="M56.166,5.431h-6.394c-0.46,0-0.794-0.376-0.794-0.794V1.211c0-0.418,0.334-0.794,0.794-0.794H68.03
				c0.461,0,0.795,0.376,0.795,0.794v3.426c0,0.418-0.334,0.794-0.795,0.794h-6.392v23.438c0,0.418-0.376,0.794-0.794,0.794h-3.886
				c-0.417,0-0.793-0.376-0.793-0.794L56.166,5.431L56.166,5.431z"/>
			<path fill="#FFFFFF" d="M84.325,15.582L74.8,1.629c-0.335-0.543,0-1.212,0.668-1.212h4.262c0.334,0,0.543,0.209,0.668,0.376
				l6.686,9.609l6.685-9.609c0.126-0.167,0.335-0.376,0.669-0.376h4.304c0.669,0,1.003,0.669,0.669,1.212l-9.651,13.912v13.327
				c0,0.418-0.376,0.794-0.794,0.794h-3.843c-0.46,0-0.794-0.376-0.794-0.794V15.582H84.325z"/>
			<path fill="#FFFFFF" d="M120.675,1.211c0-0.418,0.376-0.794,0.794-0.794h3.886c0.417,0,0.793,0.376,0.793,0.794v27.657
				c0,0.418-0.376,0.794-0.793,0.794h-3.886c-0.418,0-0.794-0.376-0.794-0.794V1.211z"/>
			<path fill="#FFFFFF" d="M143.277,0.961c0.083-0.293,0.418-0.544,0.752-0.544h3.009c0.585,0,0.919,0.46,0.752,1.044l-8.146,27.658
				c-0.084,0.293-0.46,0.543-0.752,0.543h-3.05c-0.543,0-0.919-0.459-0.752-1.045L143.277,0.961z"/>
			<path fill="#FFFFFF" d="M169.308,0c8.355,0,15.04,6.726,15.04,15.082c0,8.355-6.685,14.998-15.04,14.998
				s-14.999-6.643-14.999-14.998C154.309,6.726,160.951,0,169.308,0z M169.308,24.648c5.264,0,9.608-4.303,9.608-9.566
				c0-5.265-4.346-9.651-9.608-9.651c-5.265,0-9.566,4.387-9.566,9.651C159.74,20.346,164.043,24.648,169.308,24.648z"/>
		</g>
	</g>
</g>
<g id="UID">
</g>
<g id="Option_2">
</g>
</svg>
